<svg width="276" height="100" viewBox="0 0 276 100" fill="none" xmlns="http://www.w3.org/2000/svg">
<rect x="18" y="77.1548" width="240" height="4" rx="2" fill="#DB0106"/>
<path d="M18 79.1548C18 78.0502 18.8954 77.1548 20 77.1548H138V81.1548H20C18.8954 81.1548 18 80.2594 18 79.1548Z" fill="#FCD60D"/>
<path d="M43.92 32.1909C43.92 34.1109 43.12 35.6042 41.52 36.6709C39.9733 37.7376 37.76 38.4842 34.88 38.9109L34.56 38.0309C35.0933 37.9242 35.6533 37.7109 36.24 37.3909C36.88 37.0176 37.4667 36.5909 38 36.1109C38.5333 35.5776 38.96 34.9909 39.28 34.3509C39.6533 33.7109 39.84 33.0442 39.84 32.3509C39.84 31.4442 39.4933 30.6709 38.8 30.0309C38.16 29.3909 37.0933 29.0709 35.6 29.0709C33.8933 29.0709 31.9733 29.4709 29.84 30.2709C27.76 31.0709 25.6267 32.1642 23.44 33.5509C21.2533 34.9376 19.1467 36.5642 17.12 38.4309C15.0933 40.2976 13.28 42.2976 11.68 44.4309C10.08 46.5642 8.8 48.8042 7.84 51.1509C6.88 53.4442 6.4 55.7376 6.4 58.0309C6.4 59.6842 6.64 61.0709 7.12 62.1909C7.65333 63.3109 8.34667 64.2176 9.2 64.9109C10.0533 65.6042 11.0667 66.1109 12.24 66.4309C13.4133 66.7509 14.6933 66.9109 16.08 66.9109C17.68 66.9109 19.3333 66.7242 21.04 66.3509C22.7467 65.9776 24.4267 65.4976 26.08 64.9109C27.7333 64.2709 29.28 63.5776 30.72 62.8309C32.2133 62.0309 33.52 61.2042 34.64 60.3509L35.36 61.2309C34.1333 62.2976 32.6933 63.3109 31.04 64.2709C29.3867 65.1776 27.6 65.9776 25.68 66.6709C23.8133 67.3109 21.8667 67.8176 19.84 68.1909C17.8667 68.5642 15.92 68.7509 14 68.7509C12.1867 68.7509 10.4533 68.5642 8.8 68.1909C7.2 67.8176 5.76 67.2042 4.48 66.3509C3.25333 65.4976 2.26667 64.4042 1.52 63.0709C0.773333 61.6842 0.4 60.0309 0.4 58.1109C0.4 55.6576 0.933333 53.2042 2 50.7509C3.12 48.2976 4.58667 45.9509 6.4 43.7109C8.26667 41.4709 10.4 39.3909 12.8 37.4709C15.2 35.5509 17.7067 33.8976 20.32 32.5109C22.9867 31.0709 25.6533 29.9509 28.32 29.1509C31.04 28.3509 33.6 27.9509 36 27.9509C36.96 27.9509 37.92 28.0309 38.88 28.1909C39.84 28.3509 40.6933 28.6176 41.44 28.9909C42.1867 29.3109 42.7733 29.7376 43.2 30.2709C43.68 30.8042 43.92 31.4442 43.92 32.1909ZM56.0094 27.9509C56.6494 27.9509 57.396 28.0309 58.2494 28.1909C59.1027 28.3509 59.5827 28.5642 59.6894 28.8309C59.5294 29.4176 59.156 30.1376 58.5694 30.9909C57.9827 31.7909 57.2627 32.6176 56.4094 33.4709C55.6094 34.2709 54.7294 35.0176 53.7694 35.7109C52.8627 36.4042 52.036 36.8576 51.2894 37.0709L50.8094 36.3509C51.236 35.9776 51.716 35.4976 52.2494 34.9109C52.7827 34.2709 53.2894 33.5776 53.7694 32.8309C54.2494 32.0309 54.7027 31.2309 55.1294 30.4309C55.556 29.5776 55.8494 28.7509 56.0094 27.9509ZM68.6494 63.3109C65.9294 65.0709 63.3427 66.4309 60.8894 67.3909C58.4894 68.2976 56.1694 68.7509 53.9294 68.7509C52.5427 68.7509 51.2894 68.4842 50.1694 67.9509C48.996 67.4709 48.4094 66.4842 48.4094 64.9909C48.4094 63.2842 48.9694 61.4709 50.0894 59.5509C51.2094 57.6309 52.6227 55.8709 54.3294 54.2709C56.0894 52.6709 58.0094 51.3642 60.0894 50.3509C62.1694 49.2842 64.196 48.7509 66.1694 48.7509C66.6494 48.7509 67.156 48.8042 67.6894 48.9109C68.276 48.9642 68.8094 49.1242 69.2894 49.3909C69.7694 49.6042 70.1427 49.9242 70.4094 50.3509C70.7294 50.7242 70.8894 51.2576 70.8894 51.9509C70.8894 53.5509 70.2494 54.8842 68.9694 55.9509C67.7427 57.0176 66.2494 57.8976 64.4894 58.5909C62.7294 59.2309 60.8894 59.7376 58.9694 60.1109C57.0494 60.4309 55.4227 60.6709 54.0894 60.8309C53.9294 61.3109 53.796 61.8176 53.6894 62.3509C53.636 62.8309 53.6094 63.2309 53.6094 63.5509C53.6094 64.4576 53.876 65.0976 54.4094 65.4709C54.996 65.7909 55.876 65.9509 57.0494 65.9509C58.3827 65.9509 60.0627 65.6576 62.0894 65.0709C64.116 64.4309 66.116 63.5776 68.0894 62.5109L68.6494 63.3109ZM54.7294 59.4709C55.5827 59.4176 56.676 59.2576 58.0094 58.9909C59.3427 58.6709 60.6227 58.2176 61.8494 57.6309C63.1294 56.9909 64.2227 56.2176 65.1294 55.3109C66.036 54.4042 66.4894 53.3376 66.4894 52.1109C66.4894 50.8842 65.956 50.2709 64.8894 50.2709C63.8227 50.2709 62.7827 50.5376 61.7694 51.0709C60.8094 51.6042 59.876 52.3242 58.9694 53.2309C58.116 54.0842 57.316 55.0709 56.5694 56.1909C55.876 57.2576 55.2627 58.3509 54.7294 59.4709ZM74.5094 62.1909C74.0827 63.0442 73.8694 63.8976 73.8694 64.7509C73.8694 65.4976 74.0827 66.1909 74.5094 66.8309C74.9894 67.4709 75.816 67.7909 76.9894 67.7909C77.6294 67.7909 78.3227 67.6842 79.0694 67.4709C79.816 67.2042 80.4827 66.8842 81.0694 66.5109C81.7094 66.0842 82.216 65.6042 82.5894 65.0709C83.016 64.5376 83.2294 63.9776 83.2294 63.3909C83.2294 62.6976 82.8294 62.1109 82.0294 61.6309C81.2827 61.1509 80.4294 60.6709 79.4694 60.1909C78.5627 59.6576 77.7094 59.0709 76.9094 58.4309C76.1627 57.7376 75.7894 56.8309 75.7894 55.7109C75.7894 54.7509 76.1094 53.8709 76.7494 53.0709C77.3894 52.2176 78.216 51.4709 79.2294 50.8309C80.296 50.1909 81.4694 49.6842 82.7494 49.3109C84.0294 48.9376 85.336 48.7509 86.6694 48.7509C87.9494 48.7509 89.1227 49.0176 90.1894 49.5509C91.256 50.0842 91.976 50.8842 92.3494 51.9509L88.7494 55.6309L88.1094 55.1509C88.3227 54.7242 88.5094 54.2709 88.6694 53.7909C88.8294 53.2576 88.9094 52.7242 88.9094 52.1909C88.9094 51.5509 88.6694 50.9909 88.1894 50.5109C87.7627 49.9776 87.016 49.7109 85.9494 49.7109C85.416 49.7109 84.8294 49.8176 84.1894 50.0309C83.6027 50.2442 83.0427 50.5376 82.5094 50.9109C81.976 51.2842 81.5227 51.7376 81.1494 52.2709C80.776 52.8042 80.5894 53.3909 80.5894 54.0309C80.5894 54.6176 80.9627 55.1509 81.7094 55.6309C82.5094 56.1109 83.3627 56.6442 84.2694 57.2309C85.2294 57.7642 86.0827 58.4309 86.8294 59.2309C87.6294 59.9776 88.0294 60.9109 88.0294 62.0309C88.0294 62.8309 87.7094 63.6309 87.0694 64.4309C86.4294 65.2309 85.576 65.9509 84.5094 66.5909C83.4427 67.2309 82.216 67.7376 80.8294 68.1109C79.496 68.5376 78.1094 68.7509 76.6694 68.7509C75.1227 68.7509 73.736 68.5109 72.5094 68.0309C71.2294 67.6042 70.296 66.9109 69.7094 65.9509L73.7894 61.7909L74.5094 62.1909ZM105.224 62.8309C104.104 64.2709 102.61 65.6309 100.744 66.9109C98.9304 68.1376 96.7971 68.7509 94.3438 68.7509C93.4371 68.7509 92.7704 68.5109 92.3437 68.0309C91.8637 67.5509 91.6237 66.9642 91.6237 66.2709C91.6237 65.5242 91.8371 64.8309 92.2637 64.1909L101.064 50.1909H96.0238L96.8238 48.7509H101.944L104.264 45.1509C105.384 44.9909 106.477 44.5642 107.544 43.8709C108.61 43.1242 109.41 42.4842 109.944 41.9509L110.824 42.2709L106.744 48.7509H114.024L113.224 50.1909H105.864L97.3038 64.0309C96.5571 65.2576 96.7704 65.8709 97.9438 65.8709C98.5838 65.8709 99.2238 65.7376 99.8638 65.4709C100.557 65.2042 101.17 64.8842 101.704 64.5109C102.29 64.0842 102.797 63.6576 103.224 63.2309C103.704 62.8042 104.104 62.4309 104.424 62.1109L105.224 62.8309ZM125.948 56.7509L124.428 59.1509H110.828L112.348 56.7509H125.948ZM151.608 48.7509C152.408 48.7509 152.808 49.0709 152.808 49.7109C152.808 49.8709 152.755 50.1109 152.648 50.4309L139.608 71.4709C140.461 71.3642 141.288 71.3109 142.088 71.3109C142.888 71.3109 143.661 71.3109 144.408 71.3109C147.341 71.3109 149.928 71.6309 152.168 72.2709C154.408 72.9109 156.275 73.7376 157.768 74.7509C159.261 75.7642 160.381 76.9109 161.128 78.1909C161.875 79.4709 162.248 80.7776 162.248 82.1109C162.248 83.3376 161.928 84.5109 161.288 85.6309C160.701 86.7509 159.768 87.7376 158.488 88.5909C157.208 89.4976 155.608 90.2176 153.688 90.7509C151.768 91.2842 149.528 91.5509 146.968 91.5509C144.941 91.5509 142.995 91.3642 141.128 90.9909C139.315 90.6709 137.875 90.2176 136.808 89.6309L137.368 88.9109C138.435 89.3909 139.795 89.7909 141.448 90.1109C143.101 90.4309 144.861 90.5909 146.728 90.5909C148.221 90.5909 149.688 90.4576 151.128 90.1909C152.568 89.9776 153.848 89.5509 154.968 88.9109C156.141 88.3242 157.075 87.5509 157.768 86.5909C158.461 85.6309 158.808 84.4309 158.808 82.9909C158.808 81.1242 158.275 79.5509 157.208 78.2709C156.141 77.0442 154.728 76.0309 152.968 75.2309C151.261 74.4842 149.315 73.9509 147.128 73.6309C144.995 73.3109 142.835 73.1509 140.648 73.1509C140.275 73.1509 139.901 73.1509 139.528 73.1509C139.208 73.2042 138.861 73.2309 138.488 73.2309L137.928 74.1109C135.368 78.2176 132.621 81.8709 129.688 85.0709C126.755 88.2709 123.768 90.9642 120.728 93.1509C117.688 95.3909 114.648 97.0709 111.608 98.1909C108.568 99.3642 105.661 99.9509 102.888 99.9509C101.821 99.9509 100.568 99.8176 99.1281 99.5509C97.6348 99.3376 96.2215 98.9376 94.8881 98.3509C93.5548 97.7642 92.4348 96.9642 91.5281 95.9509C90.6215 94.9376 90.1681 93.6576 90.1681 92.1109C90.1681 90.0309 90.8348 88.1376 92.1681 86.4309C93.5015 84.7776 95.2881 83.2842 97.5281 81.9509C99.7681 80.6176 102.381 79.4176 105.368 78.3509C108.301 77.2842 111.421 76.3509 114.728 75.5509C117.981 74.7509 121.315 74.0576 124.728 73.4709C128.088 72.9376 131.315 72.4576 134.408 72.0309L138.888 64.9109L139.688 63.5509C137.661 65.5242 135.848 66.8576 134.248 67.5509C132.648 68.1909 131.181 68.5109 129.848 68.5109C129.155 68.5109 128.435 68.2976 127.688 67.8709C126.888 67.4442 126.488 66.5909 126.488 65.3109C126.488 64.5642 126.621 63.8176 126.888 63.0709C127.155 62.3242 127.608 61.4442 128.248 60.4309L132.088 54.2709C132.995 52.5642 133.075 51.6042 132.328 51.3909C131.581 51.1776 130.195 51.7642 128.168 53.1509L127.608 52.5109C128.995 51.4442 130.355 50.5642 131.688 49.8709C133.075 49.1242 134.328 48.7509 135.448 48.7509C136.781 48.7509 137.635 49.2576 138.008 50.2709C138.381 51.2309 138.221 52.2442 137.528 53.3109L132.568 61.1509C132.408 61.4176 132.141 61.9242 131.768 62.6709C131.395 63.3642 131.208 64.0042 131.208 64.5909C131.208 65.4442 131.661 65.8709 132.568 65.8709C133.688 65.8709 134.755 65.6042 135.768 65.0709C136.835 64.5376 137.848 63.8442 138.808 62.9909C139.821 62.0842 140.755 61.0709 141.608 59.9509C142.461 58.8309 143.261 57.6842 144.008 56.5109L144.408 55.8709L146.088 53.2309C146.835 51.9509 147.661 50.8842 148.568 50.0309C149.475 49.1776 150.488 48.7509 151.608 48.7509ZM103.048 98.9909C104.968 98.9909 106.888 98.5909 108.808 97.7909C110.728 97.0442 112.621 96.0309 114.488 94.7509C116.355 93.5242 118.168 92.0576 119.928 90.3509C121.688 88.6976 123.368 86.9642 124.968 85.1509C126.515 83.3909 127.928 81.6042 129.208 79.7909C130.541 77.9776 131.715 76.2709 132.728 74.6709L133.448 73.6309C131.475 73.8442 129.155 74.1642 126.488 74.5909C123.821 75.0176 121.075 75.5509 118.248 76.1909C115.368 76.8842 112.541 77.6842 109.768 78.5909C106.995 79.5509 104.515 80.6976 102.328 82.0309C100.141 83.3642 98.3815 84.8842 97.0481 86.5909C95.6615 88.3509 94.9681 90.3242 94.9681 92.5109C94.9681 93.7376 95.2348 94.7509 95.7681 95.5509C96.2481 96.4042 96.8881 97.0709 97.6881 97.5509C98.4348 98.0842 99.2881 98.4576 100.248 98.6709C101.208 98.8842 102.141 98.9909 103.048 98.9909ZM223.213 24.4309C223.213 26.5109 222.546 28.4042 221.213 30.1109C219.879 31.7642 218.093 33.2576 215.853 34.5909C213.613 35.9242 210.999 37.1242 208.013 38.1909C205.079 39.2576 201.959 40.1909 198.653 40.9909C195.399 41.7909 192.066 42.4842 188.653 43.0709C185.293 43.6042 182.066 44.0842 178.973 44.5109L172.893 54.1109C174.013 52.9376 175.026 52.0042 175.933 51.3109C176.893 50.6176 177.773 50.0842 178.573 49.7109C179.373 49.3376 180.119 49.0976 180.813 48.9909C181.506 48.8309 182.173 48.7509 182.813 48.7509C184.039 48.7509 184.973 49.0976 185.613 49.7909C186.253 50.4309 186.573 51.3109 186.573 52.4309C186.573 54.1376 185.959 55.9509 184.733 57.8709C183.559 59.7909 182.039 61.5509 180.173 63.1509C178.359 64.7509 176.359 66.0842 174.173 67.1509C171.986 68.2176 169.933 68.7509 168.013 68.7509C166.573 68.7509 165.506 68.4842 164.812 67.9509C164.119 67.4176 163.719 66.7242 163.612 65.8709C163.452 65.0176 163.532 64.0576 163.852 62.9909C164.119 61.9242 164.492 60.8576 164.973 59.7909C165.506 58.6709 166.066 57.6309 166.653 56.6709C167.239 55.6576 167.746 54.8042 168.173 54.1109L173.773 45.0709C172.919 45.1776 172.093 45.2309 171.293 45.2309C170.492 45.2309 169.719 45.2309 168.973 45.2309C166.039 45.2309 163.452 44.9109 161.212 44.2709C158.972 43.6309 157.106 42.8042 155.612 41.7909C154.119 40.7776 152.999 39.6309 152.252 38.3509C151.506 37.0709 151.132 35.7642 151.132 34.4309C151.132 33.2576 151.452 32.1109 152.092 30.9909C152.679 29.8176 153.612 28.8042 154.892 27.9509C156.172 27.0442 157.772 26.3242 159.692 25.7909C161.612 25.2576 163.852 24.9909 166.413 24.9909C168.439 24.9909 170.359 25.1776 172.173 25.5509C174.039 25.8709 175.506 26.3242 176.572 26.9109L176.013 27.6309C174.946 27.1509 173.586 26.7509 171.933 26.4309C170.279 26.1109 168.519 25.9509 166.653 25.9509C165.159 25.9509 163.692 26.0842 162.252 26.3509C160.812 26.5642 159.532 26.9909 158.412 27.6309C157.239 28.2176 156.306 28.9909 155.612 29.9509C154.919 30.9109 154.572 32.1109 154.572 33.5509C154.572 35.4176 155.106 36.9909 156.172 38.2709C157.239 39.4976 158.652 40.5109 160.412 41.3109C162.119 42.0576 164.039 42.5909 166.173 42.9109C168.359 43.2309 170.546 43.3909 172.733 43.3909C173.106 43.3909 173.453 43.3909 173.773 43.3909C174.146 43.3376 174.519 43.3109 174.893 43.3109L175.453 42.4309C178.013 38.3242 180.759 34.6709 183.693 31.4709C186.626 28.2709 189.613 25.5776 192.653 23.3909C195.693 21.1509 198.733 19.4709 201.773 18.3509C204.813 17.1776 207.719 16.5909 210.493 16.5909C211.559 16.5909 212.813 16.7242 214.253 16.9909C215.746 17.2042 217.133 17.6042 218.413 18.1909C219.746 18.7776 220.866 19.5776 221.773 20.5909C222.733 21.6042 223.213 22.8842 223.213 24.4309ZM210.333 17.5509C208.413 17.5509 206.493 17.9509 204.573 18.7509C202.653 19.4976 200.759 20.5109 198.893 21.7909C197.026 23.0176 195.213 24.4842 193.453 26.1909C191.693 27.8442 190.013 29.5776 188.413 31.3909C186.866 33.1509 185.426 34.9376 184.093 36.7509C182.813 38.5642 181.666 40.2709 180.653 41.8709L179.933 42.9109C181.906 42.6976 184.226 42.3776 186.893 41.9509C189.559 41.5242 192.306 40.9909 195.133 40.3509C198.013 39.6576 200.839 38.8576 203.613 37.9509C206.386 36.9909 208.866 35.8442 211.053 34.5109C213.239 33.1776 214.999 31.6576 216.333 29.9509C217.719 28.1909 218.413 26.2176 218.413 24.0309C218.413 22.8042 218.146 21.7909 217.613 20.9909C217.133 20.1376 216.493 19.4709 215.693 18.9909C214.946 18.4576 214.093 18.0842 213.133 17.8709C212.173 17.6576 211.239 17.5509 210.333 17.5509ZM179.533 51.9509C178.466 51.9509 177.239 52.4309 175.853 53.3909C174.466 54.2976 173.133 55.4442 171.853 56.8309C170.626 58.1642 169.559 59.6042 168.653 61.1509C167.799 62.6976 167.373 64.0842 167.373 65.3109C167.373 66.5909 167.986 67.2309 169.213 67.2309C170.599 67.2309 172.013 66.7509 173.453 65.7909C174.893 64.8309 176.199 63.6576 177.373 62.2709C178.546 60.8842 179.506 59.4176 180.253 57.8709C180.999 56.3242 181.373 54.9642 181.373 53.7909C181.373 52.5642 180.759 51.9509 179.533 51.9509ZM187.243 63.6309C187.136 61.7109 187.67 59.8442 188.843 58.0309C190.016 56.2176 191.483 54.5909 193.243 53.1509C195.003 51.7109 196.923 50.5642 199.003 49.7109C201.136 48.8042 203.136 48.3509 205.003 48.3509C207.03 48.3509 208.47 48.8042 209.323 49.7109C210.176 50.6176 210.63 51.8442 210.683 53.3909C210.736 55.2576 210.203 57.1242 209.083 58.9909C207.963 60.8042 206.523 62.4309 204.763 63.8709C203.056 65.3109 201.136 66.4842 199.003 67.3909C196.923 68.2976 194.923 68.7509 193.003 68.7509C190.976 68.7509 189.536 68.2976 188.683 67.3909C187.776 66.4309 187.296 65.1776 187.243 63.6309ZM204.443 49.3109C203.11 49.3109 201.67 49.9242 200.123 51.1509C198.63 52.3242 197.243 53.7642 195.963 55.4709C194.683 57.1776 193.616 58.9642 192.763 60.8309C191.91 62.6976 191.51 64.2709 191.563 65.5509C191.67 67.0442 192.31 67.7909 193.483 67.7909C194.443 67.7909 195.67 67.2309 197.163 66.1109C198.656 64.9376 200.07 63.5242 201.403 61.8709C202.79 60.2176 203.963 58.4576 204.923 56.5909C205.883 54.6709 206.336 52.9642 206.283 51.4709C206.176 50.0309 205.563 49.3109 204.443 49.3109ZM221.229 48.7509C222.563 48.7509 223.416 49.2576 223.789 50.2709C224.163 51.2309 224.003 52.2442 223.309 53.3109L223.149 53.5509C225.123 51.6842 226.883 50.4309 228.429 49.7909C230.029 49.0976 231.496 48.7509 232.829 48.7509C233.523 48.7509 234.243 48.9642 234.989 49.3909C235.789 49.8176 236.189 50.6709 236.189 51.9509C236.189 52.6976 236.056 53.4442 235.789 54.1909C235.523 54.9376 235.069 55.8176 234.429 56.8309L230.829 62.6709C229.603 64.6442 229.336 65.7909 230.029 66.1109C230.776 66.3776 232.243 65.7909 234.429 64.3509L234.989 64.9909C233.603 66.0576 232.216 66.9642 230.829 67.7109C229.496 68.4042 228.269 68.7509 227.149 68.7509C225.816 68.7509 224.963 68.2709 224.589 67.3109C224.216 66.2976 224.376 65.2576 225.069 64.1909L230.109 56.1109C230.269 55.8442 230.536 55.3642 230.909 54.6709C231.283 53.9242 231.469 53.2576 231.469 52.6709C231.469 51.8176 231.016 51.3909 230.109 51.3909C228.989 51.3909 227.896 51.6576 226.829 52.1909C225.816 52.7242 224.803 53.4442 223.789 54.3509C222.829 55.2042 221.896 56.1909 220.989 57.3109C220.136 58.4309 219.363 59.5776 218.669 60.7509L214.109 68.0309C213.789 68.5109 213.469 68.7509 213.149 68.7509C212.723 68.7509 212.376 68.4309 212.109 67.7909C211.843 67.1509 211.709 66.6176 211.709 66.1909C211.709 65.3909 211.896 64.5376 212.269 63.6309C212.643 62.7242 213.123 61.8442 213.709 60.9909L217.549 54.8309C218.776 52.8576 219.016 51.7376 218.269 51.4709C217.576 51.1509 216.136 51.7109 213.949 53.1509L213.389 52.5109C214.776 51.4442 216.136 50.5642 217.469 49.8709C218.856 49.1242 220.109 48.7509 221.229 48.7509ZM275.543 44.4309C275.543 45.8709 275.089 47.1242 274.183 48.1909C273.329 49.2042 272.236 50.1109 270.903 50.9109C269.623 51.7109 268.236 52.4042 266.743 52.9909C265.303 53.5776 263.996 54.1109 262.822 54.5909C261.116 55.3376 259.543 56.1642 258.103 57.0709C256.716 57.9776 255.463 59.3642 254.343 61.2309L253.463 60.8309C254.316 59.3376 255.329 58.1376 256.503 57.2309C257.729 56.3242 258.956 55.5509 260.183 54.9109C261.409 54.2709 262.636 53.6842 263.863 53.1509C265.089 52.6176 266.183 51.9776 267.143 51.2309C268.103 50.4842 268.876 49.5776 269.463 48.5109C270.049 47.4442 270.343 46.0576 270.343 44.3509C270.343 43.7642 270.209 43.1242 269.943 42.4309C269.676 41.7376 269.303 41.0976 268.823 40.5109C268.343 39.8709 267.729 39.3642 266.983 38.9909C266.236 38.5642 265.383 38.3509 264.423 38.3509C263.356 38.3509 262.289 38.5109 261.223 38.8309C260.156 39.1509 259.169 39.6576 258.263 40.3509C257.409 41.0442 256.716 41.9242 256.183 42.9909C255.649 44.0576 255.383 45.3376 255.383 46.8309C255.383 48.2176 255.729 49.2576 256.423 49.9509C257.169 50.6442 258.049 50.9909 259.063 50.9909C259.756 50.9909 260.476 50.8309 261.223 50.5109C261.969 50.1909 262.663 49.7109 263.303 49.0709L263.623 49.4709C261.703 51.2842 259.649 52.1909 257.463 52.1909C255.596 52.1909 254.103 51.6842 252.983 50.6709C251.916 49.6576 251.383 48.2976 251.383 46.5909C251.383 43.9776 252.476 41.7909 254.663 40.0309C256.849 38.2709 260.103 37.3909 264.423 37.3909C265.703 37.3909 266.983 37.4976 268.263 37.7109C269.596 37.9242 270.796 38.2976 271.863 38.8309C272.929 39.3109 273.809 40.0042 274.503 40.9109C275.196 41.8176 275.543 42.9909 275.543 44.4309ZM248.902 68.7509C248.209 68.7509 247.862 68.3242 247.862 67.4709C247.862 66.9376 248.049 66.4309 248.423 65.9509C248.796 65.4176 249.249 64.9376 249.782 64.5109C250.262 64.0842 250.769 63.7376 251.303 63.4709C251.836 63.2042 252.289 63.0709 252.663 63.0709C253.303 63.0709 253.623 63.4442 253.623 64.1909C253.623 64.7242 253.436 65.2576 253.063 65.7909C252.743 66.3242 252.343 66.8309 251.863 67.3109C251.383 67.7376 250.876 68.0842 250.342 68.3509C249.756 68.6176 249.276 68.7509 248.902 68.7509Z" fill="white"/>
<rect x="97.8939" y="77.1548" width="16.7884" height="4" fill="#FCD60D"/>
</svg>
