<?xml version="1.0" encoding="UTF-8"?>
<svg id="Calque_2" data-name="Calque 2" xmlns="http://www.w3.org/2000/svg" viewBox="0 0 75 75">
  <defs>
    <style>
      .cls-1 {
        fill: #fcd60d;
      }

      .cls-2 {
        fill: #db0106;
      }
    </style>
  </defs>
  <g id="Calque_1-2" data-name="Calque 1">
    <g>
      <circle class="cls-2" cx="37.5" cy="37.5" r="35.5"/>
      <path class="cls-1" d="M37.5,4c18.47,0,33.5,15.03,33.5,33.5s-15.03,33.5-33.5,33.5S4,55.97,4,37.5,19.03,4,37.5,4m0-4C16.79,0,0,16.79,0,37.5s16.79,37.5,37.5,37.5,37.5-16.79,37.5-37.5S58.21,0,37.5,0h0Z"/>
    </g>
    <g>
      <path class="cls-1" d="M32.87,40.05c-.9,0-2.88,1.32-4.62,4.02-2.1,3.3-4.56,8.52-4.56,11.1,0,.9-.18,1.44-1.14,1.44-2.82,0-6.72-.72-6.72-2.88,0-4.32,5.46-12.96,5.46-17.76,0-.6,.54-1.02,1.68-1.02,5.34,0,5.58,4.38,5.82,4.38s4.26-4.38,9.66-4.38c3,0,4.56,1.56,4.56,3.96,0,4.08-4.92,9.42-4.92,15.24,0,3,1.92,5.34,5.58,5.34,1.86,0,2.7-.66,3.18-.66,.42,0,.78,.3,.78,.72,0,1.2-3.78,5.16-10.2,5.16-5.04,0-9.06-3.3-9.06-8.16,0-7.02,5.46-13.14,5.46-15.54,0-.54-.3-.96-.96-.96Z"/>
      <path class="cls-1" d="M43.26,59.47c5.99,.56,8.37-15.56,8.43-19.5,.16-4.96-7.58-10.7-14.24-7.69-13.04,4.22-22.96-10.59-8.36-13.09,1.75-.21,25.23-1.68,25.23-1.68-.29,.89-16.06,4.65-20.67,5.08-13.98,.72-4.74,7.91,3.2,4.9,8.22-3.05,18.81,2.76,18.78,8.15,0,4.4-.41,8.11-.84,11.07-2.53,15.28-7.3,16.91-16.11,17.95l4.58-5.2Z"/>
      <path class="cls-1" d="M30.55,19.11c2.38-.92,2.57-2.75,3-4.62,2.2,.42,2.96,4.22,2.96,4.22l-5.96,.39Z"/>
      <path class="cls-1" d="M36.93,18.85c2.38-.92,2.57-2.75,3-4.62,2.2,.42,2.96,4.22,2.96,4.22l-5.96,.39Z"/>
      <path class="cls-1" d="M43.4,18.68c2.38-.92,2.57-2.75,3-4.62,2.2,.42,2.96,4.22,2.96,4.22l-5.96,.39Z"/>
    </g>
  </g>
</svg>